<?xml version="1.0" standalone="no"?>
<!DOCTYPE svg PUBLIC "-//W3C//DTD SVG 20010904//EN"
 "http://www.w3.org/TR/2001/REC-SVG-20010904/DTD/svg10.dtd">
<svg version="1.0" xmlns="http://www.w3.org/2000/svg"
 width="142.000000pt" height="142.000000pt" viewBox="0 0 142.000000 142.000000"
 preserveAspectRatio="xMidYMid meet">
<metadata>
Created by potrace 1.14, written by Peter Selinger 2001-2017
</metadata>
<g transform="translate(0.000000,142.000000) scale(0.100000,-0.100000)"
fill="#000000" stroke="none">
<path d="M1034 891 c-38 -23 -70 -64 -119 -150 -31 -56 -35 -71 -29 -105 9
-61 43 -133 70 -151 40 -26 96 -18 115 17 9 17 6 26 -19 52 -27 29 -62 101
-62 129 0 19 116 154 145 170 24 12 24 14 9 35 -19 28 -67 29 -110 3z m68 -6
c19 -8 -114 -148 -137 -144 -15 4 -12 11 17 54 19 28 50 60 68 73 37 25 34 24
52 17z"/>
<path d="M546 893 c38 -5 44 -20 44 -119 l0 -71 -34 -10 c-41 -13 -46 -5 -46
63 0 26 -5 44 -11 44 -8 0 -9 -25 -4 -85 l7 -85 -46 0 c-25 0 -46 5 -46 10 0
6 14 40 30 77 46 101 29 101 -20 1 -23 -49 -46 -88 -51 -88 -8 0 10 49 44 115
17 34 17 38 3 25 -17 -14 -126 -222 -140 -267 -7 -21 -4 -23 31 -23 37 0 39 2
58 53 l20 52 56 3 56 3 12 -45 c14 -57 46 -81 96 -72 19 4 36 10 39 15 3 4 -1
27 -8 52 -8 24 -19 115 -26 202 l-13 157 -41 -2 c-35 -1 -37 -2 -10 -5z"/>
<path d="M770 896 c0 -9 -71 -382 -76 -398 -5 -16 2 -18 60 -18 53 0 66 3 70
18 6 21 76 381 76 393 0 5 -29 9 -65 9 -36 0 -65 -2 -65 -4z m94 -73 c-7 -32
-13 -64 -14 -70 0 -8 -15 -13 -41 -13 l-42 0 7 54 c9 82 12 86 61 86 l43 0
-14 -57z"/>
</g>
</svg>
